{"title":"Carnage Road (2000) DVDRip - RadioResearch","uid":8471872,"size":1041526444,"categoryP":"video","categoryS":"movies","magnet":"?xt=urn:btih:11f2831a47656227f410e4bbe0d14d09886334c4&amp;dn=Carnage+Road+%282000%29+DVDRip+-+RadioResearch&amp;tr=udp%3A%2F%2Ftracker.openbittorrent.com%3A80&amp;tr=udp%3A%2F%2Fopen.demonii.com%3A1337&amp;tr=udp%3A%2F%2Ftracker.coppersurfer.tk%3A6969&amp;tr=udp%3A%2F%2Fexodus.desync.com%3A6969","seeders":0,"leechers":1,"uploader":"RadioResearch","files":3,"time":1368505279,"description":"*******************************************************************************\n                  Carnage Road (2000) DVDRip - RadioResearch\n*******************************************************************************\n\n-------------------------------------------------------------------------------\n                              General Information\n-------------------------------------------------------------------------------\nType.................: Movie\n\n\n\nVideo Format.........: AVI\nVideo Bitrate........: 1996\nResolution...........: 624 x 480\nColor................: 8 bit\nFPS..................: 29.970\nSource...............: DVD 4x3\nOriginal Format......: NTSC\nGenre................: Horror\nIMDb Rating..........: 2.3\nMovie Information....: http://www.imdb.com/title/tt0259233/\n\n-------------------------------------------------------------------------------\n                               Post Information\n-------------------------------------------------------------------------------\nPosted by............: RadioResearch\nPosted on............: 5/13/2013\n\n-------------------------------------------------------------------------------\n                                 Release Notes\n-------------------------------------------------------------------------------\nSEEDBOX SUPPORTED!!\n\nAKA  Carnage: The Legend of Quiltface\n\nThe Legend of Quiltface is true and the stories of his murders are \nlegendary.  Anyone foolish enough to incite his wrath will learn that every \npath leads to Carnage!  Four students set out for the barren Nevada desert on a \nclass photography assignment. They are soon confronted by a machete-wielding \nmaniac known as Quiltface. \n\nThis little piece of schlock is almost an homage to The Hills Have Eyes and \nTexas Chainsaw Massacre.  Comments on this film have ranged from &quot;trash&quot; to \n&quot;Hilarious!&quot; to &quot;Watch this only under the influence of alcohol.&quot;  It has its \nhilarious moments and gives it the ol' college try, and is a bit of a cult \nclassic, so have at it and fill your boots!\n\nEnjoy!\n\nRadioResearch\n\nGeneral\nComplete name                            : G:Carnage Road (2000) DVDRip - \nRadioResearchCarnage Road - {RadioResearch}.avi\nFormat                                   : AVI\nFormat/Info                              : Audio Video Interleave\nFile size                                : 993 MiB\nDuration                                 : 1h 9mn\nOverall bit rate                         : 1 996 Kbps\nMovie name                               : DVDVOLUME.Title1.DVDRip\nWriting application                      : Lavf53.32.100\nOriginal source form/Name                : DVDVOLUME\n\nVideo\nID                                       : 0\nFormat                                   : MPEG-4 Visual\nFormat profile                           : Advanced Simple@L5\nFormat settings, BVOP                    : 2\nFormat settings, QPel                    : No\nFormat settings, GMC                     : No warppoints\nFormat settings, Matrix                  : Default (H.263)\nMuxing mode                              : Packed bitstream\nCodec ID                                 : XVID\nCodec ID/Hint                            : XviD\nDuration                                 : 1h 9mn\nBit rate                                 : 1 792 Kbps\nWidth                                    : 624 pixels\nHeight                                   : 480 pixels\nDisplay aspect ratio                     : 4:3\nFrame rate                               : 29.970 fps\nColor space                              : YUV\nChroma subsampling                       : 4:2:0\nBit depth                                : 8 bits\nScan type                                : Progressive\nCompression mode                         : Lossy\nBits/(Pixel*Frame)                       : 0.200\nStream size                              : 892 MiB (90%)\nWriting library                          : XviD 64\n\nAudio\nID                                       : 1\nFormat                                   : AC-3\nFormat/Info                              : Audio Coding 3\nMode extension                           : CM (complete main)\nFormat settings, Endianness              : Big\nCodec ID                                 : 2000\nDuration                                 : 1h 9mn\nBit rate mode                            : Constant\nBit rate                                 : 192 Kbps\nChannel(s)                               : 2 channels\nChannel positions                        : Front: L R\nSampling rate                            : 48.0 KHz\nBit depth                                : 16 bits\nCompression mode                         : Lossy\nStream size                              : 95.5 MiB (10%)\nAlignment                                : Aligned on interleaves\nInterleave, duration                     : 32 ms (0.96 video frame)\n\nAVI FILE MD5 HASH  35a2b13ee2551e98364b3597578b4c5f\n\n\n\n-------------------------------------------------------------------------------\nGenerated with Cool NFO Creator - http://fly.to/coolbeans\n-------------------------------------------------------------------------------\n","torrent":{"xt":"urn:btih:11f2831a47656227f410e4bbe0d14d09886334c4","amp;dn":"Carnage+Road+%282000%29+DVDRip+-+RadioResearch","amp;tr":["udp%3A%2F%2Ftracker.openbittorrent.com%3A80","udp%3A%2F%2Fopen.demonii.com%3A1337","udp%3A%2F%2Ftracker.coppersurfer.tk%3A6969","udp%3A%2F%2Fexodus.desync.com%3A6969"],"infoHash":"11f2831a47656227f410e4bbe0d14d09886334c4","infoHashBuffer":{"type":"Buffer","data":[17,242,131,26,71,101,98,39,244,16,228,187,224,209,77,9,136,99,52,196]},"announce":[],"urlList":[]}}